<?xml version="1.0" encoding="utf-8"?>
<!-- Svg Vector Icons : http://www.onlinewebfonts.com/icon -->
<!DOCTYPE svg PUBLIC "-//W3C//DTD SVG 1.1//EN" "http://www.w3.org/Graphics/SVG/1.1/DTD/svg11.dtd">
<svg version="1.1" xmlns="http://www.w3.org/2000/svg" xmlns:xlink="http://www.w3.org/1999/xlink" x="0px" y="0px" viewBox="0 0 256 256" enable-background="new 0 0 256 256" xml:space="preserve">
<metadata> Svg Vector Icons : http://www.onlinewebfonts.com/icon </metadata>
<g><g><g><path fill="#000000" d="M25.7,56.3c-6.3,1.5-11.7,5.9-14.3,11.5L10,70.7V128v57.3l1.3,2.9c1.6,3.5,5.5,7.6,8.8,9.4c5.3,2.9,0.3,2.8,107.9,2.8c70.1,0,99.5-0.1,101.4-0.5c6-1.2,12.1-5.7,14.6-10.6c2.1-4.1,2.1-5.3,2-63.2l-0.1-55.4l-1.3-2.9c-2.7-5.8-8.5-10.2-15.1-11.6C225.4,55.4,29.1,55.5,25.7,56.3z M222.9,69.6c0,0.5-88.5,77.5-90.2,78.5c-2.8,1.5-6.9,1.5-9.6,0c-1.7-0.9-90.2-77.9-90.2-78.4c0-0.1,42.7-0.2,95-0.2S222.9,69.5,222.9,69.6z M49.5,105.8c12.5,11,22.7,20,22.7,20.2c0,0.1-11,11.3-24.4,24.7L23.5,175v-46V83.1l1.6,1.4C26,85.3,37,94.9,49.5,105.8z M232.3,129.3V175l-24.4-24.4c-13.4-13.4-24.3-24.6-24.2-24.8c0.1-0.5,47.8-42.2,48.2-42.2C232.1,83.7,232.3,104.2,232.3,129.3z M98.6,148.8c8.4,7.4,14.2,12.1,16.4,13.3c7.4,4.1,16.3,4.4,24.2,0.8c3.7-1.7,4.2-2.1,19.2-15.2c6.4-5.6,11.9-10.3,12.3-10.5c0.5-0.3,7.4,6.3,25.2,24.1c13.5,13.5,24.6,24.7,24.6,24.9c0,0.2-41.6,0.4-92.5,0.4c-50.9,0-92.5-0.1-92.5-0.3c0-0.8,49-49.4,49.6-49.2C85.3,137.2,91.4,142.5,98.6,148.8z"/></g></g></g>
</svg>